<svg width="38" height="38" viewBox="0 0 38 38" fill="none" xmlns="http://www.w3.org/2000/svg">
<path d="M17.8588 4.54202C17.95 4.29546 18.0673 4.18565 18.1641 4.12211C18.2824 4.04443 18.4536 3.9863 18.657 3.9863C18.8603 3.9863 19.0316 4.04443 19.1499 4.12211C19.2467 4.18565 19.3639 4.29546 19.4552 4.54202C21.7381 10.7116 26.6024 15.5759 32.772 17.8588C33.0185 17.95 33.1283 18.0673 33.1919 18.1641C33.2696 18.2824 33.3277 18.4536 33.3277 18.657C33.3277 18.8603 33.2696 19.0316 33.1919 19.1499C33.1283 19.2467 33.0185 19.3639 32.772 19.4552C26.6024 21.7381 21.7381 26.6024 19.4552 32.772C19.3639 33.0185 19.2467 33.1283 19.1499 33.1919C19.0316 33.2696 18.8603 33.3277 18.657 33.3277C18.4536 33.3277 18.2824 33.2696 18.1641 33.1919C18.0673 33.1283 17.95 33.0185 17.8588 32.772C15.5759 26.6024 10.7116 21.7381 4.54202 19.4552C4.29546 19.3639 4.18565 19.2467 4.12211 19.1499C4.04443 19.0316 3.9863 18.8603 3.9863 18.657C3.9863 18.4536 4.04443 18.2824 4.12211 18.1641C4.18565 18.0673 4.29546 17.95 4.54202 17.8588C10.7116 15.5759 15.5759 10.7116 17.8588 4.54202Z" fill="#3DD567" stroke="black" stroke-width="7.902"/>
</svg>
