<svg width="101" height="175" viewBox="0 0 101 175" fill="none" xmlns="http://www.w3.org/2000/svg">
<path d="M36.8588 132.542C36.95 132.295 37.0673 132.186 37.1641 132.122C37.2824 132.044 37.4536 131.986 37.657 131.986C37.8603 131.986 38.0316 132.044 38.1499 132.122C38.2467 132.186 38.3639 132.295 38.4552 132.542C40.7381 138.712 45.6024 143.576 51.772 145.859C52.0185 145.95 52.1283 146.067 52.1919 146.164C52.2696 146.282 52.3277 146.454 52.3277 146.657C52.3277 146.86 52.2696 147.032 52.1919 147.15C52.1283 147.247 52.0185 147.364 51.772 147.455C45.6024 149.738 40.7381 154.602 38.4552 160.772C38.3639 161.019 38.2467 161.128 38.1499 161.192C38.0316 161.27 37.8603 161.328 37.657 161.328C37.4536 161.328 37.2824 161.27 37.1641 161.192C37.0673 161.128 36.95 161.019 36.8588 160.772C34.5759 154.602 29.7116 149.738 23.542 147.455C23.2955 147.364 23.1856 147.247 23.1221 147.15C23.0444 147.032 22.9863 146.86 22.9863 146.657C22.9863 146.454 23.0444 146.282 23.1221 146.164C23.1856 146.067 23.2955 145.95 23.542 145.859C29.7116 143.576 34.5759 138.712 36.8588 132.542Z" fill="#3DD567" stroke="black" stroke-width="7.902"/>
<path d="M46.2888 23.6733C47.6441 20.0109 52.8242 20.0109 54.1794 23.6733C58.0564 34.1509 66.3174 42.4118 76.7949 46.2888C80.4574 47.6441 80.4574 52.8242 76.7949 54.1794C66.3174 58.0564 58.0564 66.3174 54.1794 76.7949C52.8242 80.4574 47.6441 80.4574 46.2889 76.7949C42.4118 66.3174 34.1509 58.0564 23.6733 54.1794C20.0109 52.8242 20.0109 47.6441 23.6733 46.2889C34.1509 42.4118 42.4118 34.1509 46.2888 23.6733Z" fill="white" stroke="black" stroke-width="9.03085"/>
</svg>
